    <svg
              xmlns="http://www.w3.org/2000/svg"
              version="1.1"
              xmlns:xlink="http://www.w3.org/1999/xlink"
              xmlns:svgjs="http://svgjs.dev/svgjs"
              width="1500"
              height="560"
              preserveAspectRatio="none"
              viewBox="0 0 1500 560"
              opacity="0.5"
            >
              <g mask='url("#SvgjsMask1031")' fill="none">
                <rect width="1500" height="560" x="0" y="0" fill=""></rect>
                <path
                  d="M -278.4239821348869,97 C -228.42,153.8 -128.42,379.6 -28.423982134886895,381 C 71.58,382.4 121.58,113.6 221.5760178651131,104 C 321.58,94.4 371.58,325.8 471.5760178651131,333 C 571.58,340.2 621.58,135.2 721.5760178651132,140 C 821.58,144.8 871.58,343.2 971.5760178651132,357 C 1071.58,370.8 1121.58,192.2 1221.576017865113,209 C 1321.58,225.8 1415.89,433 1471.576017865113,441 C 1527.26,449 1494.32,287.4 1500,249"
                  stroke="rgba(91, 91, 91, 0.58)"
                  stroke-width="2"
                ></path>
                <path
                  d="M -271.2365586813414,406 C -221.24,364.4 -121.24,208.6 -21.236558681341418,198 C 78.76,187.4 128.76,347.4 228.76344131865858,353 C 328.76,358.6 378.76,224.4 478.7634413186586,226 C 578.76,227.6 628.76,355.8 728.7634413186586,361 C 828.76,366.2 878.76,250.2 978.7634413186586,252 C 1078.76,253.8 1128.76,397 1228.7634413186586,370 C 1328.76,343 1424.52,123.2 1478.7634413186586,117 C 1533.01,110.8 1495.75,294.6 1500,339"
                  stroke="rgba(91, 91, 91, 0.58)"
                  stroke-width="2"
                ></path>
                <path
                  d="M -333.9745541641886,452 C -283.97,385.4 -183.97,127.4 -83.97455416418856,119 C 16.03,110.6 66.03,409.4 166.02544583581144,410 C 266.03,410.6 316.03,112.2 416.0254458358114,122 C 516.03,131.8 566.03,446.8 666.0254458358114,459 C 766.03,471.2 816.03,194.8 916.0254458358114,183 C 1016.03,171.2 1066.03,393.4 1166.0254458358115,400 C 1266.03,406.6 1349.23,233 1416.0254458358115,216 C 1482.82,199 1483.21,295.2 1500,315"
                  stroke="rgba(91, 91, 91, 0.58)"
                  stroke-width="2"
                ></path>
              </g>
              <defs>
                <mask id="SvgjsMask1031">
                  <rect width="1500" height="560" fill="#ffffff"></rect>
                </mask>
              </defs>
            </svg>