<svg xmlns="http://www.w3.org/2000/svg" version="1.1" xmlns:xlink="http://www.w3.org/1999/xlink" xmlns:svgjs="http://svgjs.dev/svgjs" width="1920" height="600" preserveAspectRatio="none" viewBox="0 0 1920 600">
    <g mask="url(&quot;#SvgjsMask1020&quot;)" fill="none">
        <rect width="1920" height="600" x="0" y="0" fill="rgba(255, 98, 158, 1)"></rect>
        <path d="M0,653.502C118.649,627.699,226.261,576.289,324.481,504.902C418.102,436.858,478.493,341.419,552.18,252.172C654.416,128.347,818.669,38.037,841.216,-120.949C864.653,-286.212,779.49,-454.569,670.313,-580.83C561.083,-707.153,406.737,-814.199,239.754,-816.527C79.706,-818.759,-30.36,-663.22,-174.004,-592.602C-287.202,-536.952,-411.649,-518.877,-514.432,-445.758C-641.579,-355.308,-826.539,-276.082,-837.717,-120.446C-849.087,37.86,-637.823,117.007,-564.979,258.017C-497.432,388.773,-550.485,584.567,-429.917,668.964C-310.012,752.897,-143.02,684.605,0,653.502" fill="#382042"></path>
        <path d="M1920 1080.743C2011.602 1075.753 2105.47 1057.4769999999999 2177.459 1000.614 2246.478 946.097 2273.489 857.982 2305.652 776.121 2336.179 698.424 2368.612 619.783 2359.697 536.781 2350.605 452.13599999999997 2319.715 365.18100000000004 2255.507 309.281 2193.9139999999998 255.65699999999998 2100.915 273.058 2024.301 244.78199999999998 1939.837 213.60899999999998 1872.693 122.91300000000001 1783.4850000000001 135.074 1694.029 147.269 1630.7939999999999 230.74200000000002 1579.962 305.355 1532.783 374.605 1517.854 457.534 1507.18 540.645 1496.651 622.628 1496.326 703.72 1518.575 783.325 1543.886 873.886 1568.308 973.701 1643.862 1029.68 1720.629 1086.557 1824.599 1085.94 1920 1080.743" fill="#6a3c7d"></path>
    </g>
    <defs>
        <mask id="SvgjsMask1020">
            <rect width="1920" height="600" fill="#ffffff"></rect>
        </mask>
    </defs>
</svg>